<svg xmlns="http://www.w3.org/2000/svg" viewBox="0 0 32 32" width="32" height="32">
  <defs>
    <linearGradient id="ghanaGrad" x1="0" y1="0" x2="0" y2="1">
      <stop offset="0%" stop-color="#0A7B35"/>
      <stop offset="48%" stop-color="#0A7B35"/>
      <stop offset="52%" stop-color="#D4A017"/>
      <stop offset="100%" stop-color="#D4A017"/>
    </linearGradient>
  </defs>

  <!-- Background: rounded square with Ghana green/gold split -->
  <rect x="0" y="0" width="32" height="32" rx="7" ry="7" fill="url(#ghanaGrad)"/>

  <!-- Shopping bag - white silhouette -->
  <!-- Bag body -->
  <path d="M8 11 L8 26 Q8 28 10 28 L22 28 Q24 28 24 26 L24 11 Z" fill="white" opacity="0.95"/>
  
  <!-- Bag handle -->
  <path d="M12 11 V8.5 Q12 5 16 5 Q20 5 20 8.5 V11" fill="none" stroke="white" stroke-width="2.2" stroke-linecap="round"/>

  <!-- Green band on upper bag -->
  <path d="M8 11 L8 18 L24 18 L24 11 Z" fill="#0A7B35" opacity="0.9"/>
  
  <!-- Gold band on lower bag -->  
  <path d="M8 18 L8 26 Q8 28 10 28 L22 28 Q24 28 24 26 L24 18 Z" fill="#D4A017" opacity="0.9"/>

  <!-- "DG" text -->
  <text x="16" y="23" text-anchor="middle" dominant-baseline="central" font-family="Arial, Helvetica, sans-serif" font-weight="bold" font-size="9.5" fill="white" letter-spacing="-0.3">DG</text>
</svg>
